PathFileType	4	(X/Y/Z)	c:/Users/goper/Files/vsCode/490R/osim_files/C03/C03_ROM.trc
DataRate	CameraRate	NumFrames	NumMarkers	Units                	OrigDataRate	OrigDataStartFrame	OrigNumFrames
250.00	250.00	10	36	mm	250.0	3197	3653
                Frame#	Time	LPSIS			LASIS			LTH1			LTH2			LTH3			LTH4			LLFE			LMFE			LSH1			LSH2			LSH3			LSH4			LLMAL			LMMAL			LCAL			LMTP5			LTOE			LMTP1			RPSIS			RASIS			RTH1			RTH2			RTH3			RTH4			RLFE			RMFE			RSH1			RSH2			RSH3			RSH4			RLMAL			RMMAL			RCAL			RMTP1			RTOE			RMTP5		
		X1	Y1	Z1	X2	Y2	Z2	X3	Y3	Z3	X4	Y4	Z4	X5	Y5	Z5	X6	Y6	Z6	X7	Y7	Z7	X8	Y8	Z8	X9	Y9	Z9	X10	Y10	Z10	X11	Y11	Z11	X12	Y12	Z12	X13	Y13	Z13	X14	Y14	Z14	X15	Y15	Z15	X16	Y16	Z16	X17	Y17	Z17	X18	Y18	Z18	X19	Y19	Z19	X20	Y20	Z20	X21	Y21	Z21	X22	Y22	Z22	X23	Y23	Z23	X24	Y24	Z24	X25	Y25	Z25	X26	Y26	Z26	X27	Y27	Z27	X28	Y28	Z28	X29	Y29	Z29	X30	Y30	Z30	X31	Y31	Z31	X32	Y32	Z32	X33	Y33	Z33	X34	Y34	Z34	X35	Y35	Z35	X36	Y36	Z36

3197	12.78400	-491.94305	890.51691	399.25824	0.00000	0.00000	0.00000	-287.92780	529.26294	252.61552	-241.40321	487.86456	245.92770	-234.53323	582.26038	242.06194	-194.77226	534.60944	236.97739	-175.82152	442.28943	235.09590	-149.46385	422.22849	343.41589	-298.27170	308.79184	228.17294	-313.51987	264.44034	227.73221	-243.75417	287.66812	211.01801	-266.81512	245.74994	212.57617	-348.07788	102.31316	224.95699	-318.46893	103.96054	302.78372	-419.83279	65.82841	266.51630	-233.04459	50.42903	168.62625	-192.09645	65.76382	215.51768	-207.16905	53.64202	258.47141	-489.18790	878.48761	510.82483	-350.95093	772.38849	555.19458	-295.10135	494.96942	641.72198	-250.39168	450.46985	641.60083	-258.61212	538.36859	673.30969	-209.18665	501.73788	680.73840	-168.34406	434.41260	682.48199	-149.08662	439.14893	566.57837	-318.08231	305.13089	673.34668	-336.27936	261.37167	674.43665	-269.78397	276.10104	700.08624	-294.55051	240.45621	697.48785	-366.29810	101.50140	678.42108	-338.44763	98.97898	600.26404	-436.02847	63.29731	631.31915	-227.67380	40.73543	630.97992	-208.17796	66.39965	681.19519	-272.12048	37.60519	733.81946
3198	12.78800	-491.44208	893.74658	399.08115	0.00000	0.00000	0.00000	-288.72006	530.86127	252.85323	-242.43085	489.12045	246.19475	-234.97264	583.43701	242.23511	-195.44098	535.58887	237.15820	-177.16620	443.10007	235.32663	-150.90721	423.11185	343.59311	-299.10788	309.04990	228.21645	-314.15964	264.69263	227.73216	-244.52271	288.15485	211.10048	-267.50867	246.17160	212.61633	-348.15802	102.30070	224.89279	-318.59619	104.00603	302.70016	-419.85703	65.79160	266.48984	-233.06644	50.44109	168.60196	-192.13185	65.75902	215.49179	-207.16022	53.70686	258.42889	-488.74936	881.82019	510.87411	-350.38919	776.14905	555.49945	-296.05453	496.76898	641.47021	-251.80228	452.02554	641.27118	-259.17889	539.83649	673.09589	-210.33492	502.89008	680.27887	-169.54654	435.24564	682.15814	-150.22531	440.10550	566.23352	-319.01141	305.36865	673.20013	-337.09012	261.54266	674.41425	-270.43512	276.51279	699.98853	-295.13284	240.79538	697.42310	-366.43878	101.52460	678.47644	-338.46353	98.99947	600.36298	-436.05325	63.27997	631.32654	-227.69707	40.73422	630.97296	-208.22205	66.43603	681.17804	-272.14594	37.62302	733.80145
3199	12.79200	-490.95337	896.99072	399.05969	0.00000	0.00000	0.00000	-289.39435	532.47516	253.08803	-243.49509	490.35547	246.54083	-235.58919	584.55011	242.33304	-196.13669	536.48090	237.30821	-178.45111	443.89822	235.59090	-152.30116	423.95956	343.76453	-300.00092	309.31714	228.25690	-314.91153	264.90637	227.74487	-245.39243	288.61664	211.13567	-268.13641	246.55495	212.63010	-348.26376	102.28407	224.82458	-318.74103	104.00931	302.62433	-419.84055	65.71787	266.46097	-233.07275	50.43610	168.57761	-192.12675	65.75633	215.48424	-207.14629	53.71981	258.39059	-488.20010	885.11481	510.79999	-349.71964	779.67188	555.62964	-296.98978	498.57776	641.16736	-252.90086	453.42932	640.97577	-259.73129	541.32507	672.90173	-211.22568	503.95566	680.03082	-170.73804	436.12842	681.78912	-151.51834	440.96390	565.97192	-319.95517	305.55850	673.12366	-337.85925	261.68890	674.42920	-271.17624	277.00348	699.86798	-295.72647	241.12665	697.36652	-366.50006	101.49866	678.56598	-338.53162	98.98486	600.45105	-436.06052	63.24636	631.35291	-227.71257	40.71612	630.97864	-208.23134	66.44435	681.17078	-272.13617	37.62728	733.80542
3200	12.79600	-490.22919	900.20428	398.49191	0.00000	0.00000	0.00000	-290.22836	534.04486	253.34726	-244.60208	491.64539	246.84952	-236.07217	585.75586	242.53171	-196.93279	537.37469	237.48688	-179.79462	444.76187	235.77643	-153.72137	424.82465	343.93655	-301.04608	309.60193	228.30217	-315.59576	265.09106	227.72598	-246.18686	289.08698	211.21733	-268.76044	246.93762	212.65167	-348.36053	102.27225	224.76106	-318.86023	104.05889	302.55640	-419.85794	65.68291	266.42789	-233.07692	50.44105	168.56065	-192.11923	65.76834	215.47527	-207.14584	53.74408	258.35263	-487.66241	888.45667	510.82999	-348.99283	783.14062	555.47186	-297.77759	500.34689	640.88959	-254.05148	454.85733	640.64563	-260.37558	542.80182	672.63818	-212.09494	505.08246	679.70508	-172.04991	436.97525	681.47809	-153.01862	441.79321	565.74084	-320.89859	305.76794	673.04266	-338.68692	261.90414	674.49780	-271.95438	277.43491	699.72363	-296.32397	241.48035	697.26923	-366.57736	101.47580	678.61884	-338.55743	98.99965	600.53223	-436.06171	63.23966	631.36987	-227.72150	40.73930	630.99915	-208.21062	66.47427	681.16565	-272.11981	37.61514	733.80505
3201	12.80000	-489.80386	903.40552	398.84641	0.00000	0.00000	0.00000	-290.92529	535.67108	253.57748	-245.60167	492.90485	247.14977	-236.32114	587.00616	242.45029	-197.58803	538.34296	237.66307	-181.15044	445.60995	235.99342	-155.18297	425.71777	344.12494	-301.87988	309.82211	228.31212	-316.38986	265.30536	227.79791	-247.07150	289.59418	211.28658	-269.53061	247.38069	212.68886	-348.43912	102.26304	224.66911	-319.02917	104.01986	302.56485	-419.89160	65.65250	266.39899	-233.08990	50.43979	168.54849	-192.13052	65.79305	215.48012	-207.36694	53.46320	258.54239	-487.16678	891.77466	510.69275	-348.32303	786.53986	555.58014	-298.70261	502.03232	640.64447	-255.43311	456.35641	640.35126	-261.04056	544.24091	672.37457	-213.03059	506.16873	679.46265	-173.36327	437.88214	681.13184	-154.46997	442.66852	565.44983	-321.75473	305.97864	672.96777	-339.21024	261.94797	674.28162	-272.74411	277.90811	699.59906	-296.94962	241.80309	697.18439	-366.41083	101.43091	679.36859	-338.58759	99.05170	600.61450	-435.97617	63.17993	631.37762	-227.75252	40.72818	631.02014	-208.21626	66.46542	681.16156	-272.09882	37.60617	733.80536
3202	12.80400	-489.25500	906.64978	398.69168	0.00000	0.00000	0.00000	-291.77841	537.33167	253.80806	-246.77631	494.24713	247.42348	-236.89365	588.15991	242.66554	-198.38107	539.26849	237.80136	-182.65117	446.42941	236.21210	-156.79268	426.49799	344.37012	-302.90005	310.16867	228.33237	-317.36252	265.50272	227.81723	-247.98366	290.11679	211.36789	-270.30072	247.70914	212.72034	-348.53134	102.26901	224.58917	-319.06232	104.16478	302.39133	-420.17667	65.64396	266.22446	-233.12553	50.42354	168.55209	-192.17444	65.78706	215.50157	-207.21687	53.73318	258.32205	-486.67444	895.08752	510.75610	-347.76968	790.08765	555.74908	-299.65097	503.79080	640.37665	-256.79474	457.79855	640.08698	-261.72870	545.73560	672.11139	-214.06577	507.27924	679.21338	-174.83130	438.71912	680.76044	-155.78365	443.61407	565.21021	-322.77240	306.19403	672.92102	-340.04935	262.08441	674.25891	-273.57004	278.32455	699.54706	-297.68774	242.10806	697.14880	-366.37897	101.49059	679.53613	-338.58313	99.07481	600.71906	-436.11447	63.20401	631.41541	-227.77663	40.71363	631.05151	-208.26686	66.43588	681.19983	-272.16580	37.54248	733.83252
3203	12.80800	-488.77118	909.90784	398.66513	0.00000	0.00000	0.00000	-292.55676	538.97107	254.02046	-247.90689	495.54266	247.74089	-237.12039	589.43799	242.62932	-199.15742	540.18738	238.03650	-184.08681	447.22052	236.44133	-158.38513	427.31552	344.58829	-303.96286	310.43332	228.35199	-318.01752	265.75641	227.66286	-248.77730	290.66937	211.40947	-270.90411	248.19499	212.70798	-348.57800	102.26555	224.48917	-319.27603	104.11012	302.39917	-420.23657	65.63593	266.19745	-233.14769	50.39638	168.57414	-192.20929	65.80387	215.50946	-207.47867	53.42144	258.56912	-486.13943	898.36096	510.66202	-347.20761	793.59814	556.03229	-300.74969	505.63190	640.14185	-258.07306	459.34146	639.78998	-262.52448	547.19739	671.94641	-214.89851	508.35236	679.12891	-176.16187	439.64569	680.42529	-157.14250	444.55878	564.94141	-323.76691	306.42212	672.81750	-340.87512	262.22406	674.22760	-274.35727	278.71753	699.44537	-298.36642	242.44020	697.11377	-366.61813	101.34814	679.52155	-338.58542	99.10848	600.82495	-436.16165	63.22014	631.45648	-227.77924	40.69508	631.06848	-208.30672	66.41541	681.25037	-272.20593	37.48499	733.85699
3204	12.81200	-488.17337	913.12677	398.54144	0.00000	0.00000	0.00000	-293.44705	540.64697	254.23412	-249.02826	496.88092	248.05103	-237.48947	590.65375	242.74748	-199.93338	541.17682	238.18059	-185.48779	448.11209	236.64069	-159.99348	428.09866	344.71167	-304.91632	310.72931	228.42473	-318.96866	265.95184	227.74690	-249.69072	291.18805	211.47102	-271.68591	248.65619	212.71001	-348.66983	102.28387	224.42812	-319.38303	104.14892	302.28885	-420.27328	65.64310	266.16113	-233.13425	50.39146	168.57756	-192.21494	65.83255	215.52101	-207.51868	53.41801	258.59888	-485.64551	901.71759	510.64059	-346.62302	797.08307	556.50208	-301.87820	507.44794	639.85089	-259.46414	460.82901	639.47772	-263.24136	548.64325	671.69397	-215.90753	509.50623	678.91919	-177.63208	440.52744	680.07385	-158.69861	445.43475	564.66974	-324.68015	306.66254	672.70764	-341.62695	262.37396	674.19897	-275.29672	279.16354	699.34070	-298.98224	242.76926	696.99976	-366.52731	101.41512	679.66119	-338.61050	99.15604	600.91980	-436.19461	63.23116	631.49298	-227.74922	40.70868	631.07404	-208.31288	66.39111	681.28845	-272.19751	37.42545	733.87421
3205	12.81600	-487.59061	916.37482	398.43250	0.00000	0.00000	0.00000	-294.21301	542.32001	254.44717	-250.27094	498.21231	248.30827	-238.20755	591.82690	242.91417	-200.77376	542.07196	238.37326	-186.94014	448.99509	236.89984	-161.51620	428.88974	344.95956	-305.93433	311.05573	228.45813	-319.73001	266.29565	227.65001	-250.04430	291.69257	211.19691	-272.35361	249.08054	212.74127	-348.74072	102.29803	224.35301	-319.36038	104.34014	302.07571	-420.27963	65.62845	266.13123	-233.12701	50.36289	168.60222	-192.20265	65.82584	215.54802	-207.34526	53.67598	258.34772	-484.96341	904.93335	510.59091	-345.86649	800.46716	556.54364	-302.79575	509.13660	639.61987	-260.73520	462.22394	639.19830	-263.94281	550.13489	671.48633	-217.07481	510.63803	678.50256	-179.03600	441.37784	679.74109	-160.20058	446.35303	564.43347	-325.61536	306.86926	672.60602	-342.17105	262.46072	674.21716	-276.10828	279.56262	699.23615	-299.67618	243.08066	696.95728	-366.64111	101.27158	679.68146	-338.59570	99.17385	601.01880	-436.17642	63.21113	631.53912	-227.62805	40.70594	631.26038	-208.26875	66.35561	681.32416	-272.15274	37.36684	733.89856
3206	12.82000	-486.88998	919.61493	398.28400	0.00000	0.00000	0.00000	-295.14020	544.04681	254.58861	-251.43840	499.49957	248.76653	-238.38579	593.15564	242.93306	-201.64183	543.04822	238.54871	-188.40149	449.88306	237.06075	-163.18643	429.74762	345.15714	-307.04037	311.27338	228.49399	-320.51923	266.53912	227.62376	-251.10121	292.21725	211.30925	-273.13538	249.55157	212.74396	-348.79132	102.32027	224.26892	-319.44223	104.40720	301.96307	-420.33847	65.64311	266.08887	-233.02989	50.39413	168.57443	-192.18773	65.83503	215.56075	-207.36926	53.65428	258.35748	-484.18112	908.19159	510.59708	-345.03015	803.76636	556.53918	-303.76138	510.92743	639.40613	-261.98398	463.79730	638.97668	-264.59088	551.73041	671.29504	-218.02548	511.83170	678.25989	-180.36328	442.34149	679.40814	-161.64799	447.31604	564.20337	-326.60254	307.12811	672.60693	-343.01642	262.64780	674.17505	-276.87714	280.07468	699.12146	-300.30624	243.42848	696.93927	-366.49207	101.32818	679.86914	-338.59268	99.22939	601.12903	-436.15244	63.19867	631.58618	-227.71863	40.70050	631.10681	-208.25040	66.33022	681.36768	-272.08566	37.34825	733.92981
